# xmcd
#
# Track frame offsets:
#	150
#	18527
#	37647
#	53124
#	70213
#	89205
#	106446
#	120034
#	135196
#	150064
#	167863
#	186077
#	204634
#	220843
#	239687
#	256206
#	270207
#	287319
#
# Disc length: 4048 seconds
#
# Revision: 0
# Processed by: cddbd v1.5.2PL0 Copyright (c) Steve Scherf et al.
# Submitted via: EasyCDDAExtractor 12.0.7.1
#
DISCID=e90fce12
DTITLE=Виктор Королев - Аллея шансона
DYEAR=2011
DGENRE=Chanson
TTITLE0=Букет белых роз (В. Королев, И. Круг)
TTITLE1=Я не стану ждать на берегу
TTITLE2=Снегири
TTITLE3=Милая
TTITLE4=Околдуй меня
TTITLE5=Замуж выходи
TTITLE6=Уходят в море корабли
TTITLE7=Красивые слова
TTITLE8=Девочка рыжая (В. Королев, гр. "Воровайки)
TTITLE9=Хулиганка
TTITLE10=Крылья
TTITLE11=Подарю тебе розы
TTITLE12=Горячий поцелуй
TTITLE13=Невеста
TTITLE14=Только с тобой
TTITLE15=Красавица
TTITLE16=Мама, не ругай
TTITLE17=Душа
EXTD=
EXTT0=
EXTT1=
EXTT2=
EXTT3=
EXTT4=
EXTT5=
EXTT6=
EXTT7=
EXTT8=
EXTT9=
EXTT10=
EXTT11=
EXTT12=
EXTT13=
EXTT14=
EXTT15=
EXTT16=
EXTT17=
PLAYORDER=
